<?xml version="1.0" standalone="no"?>
<!DOCTYPE svg PUBLIC "-//W3C//DTD SVG 20010904//EN" "http://www.w3.org/TR/2001/REC-SVG-20010904/DTD/svg10.dtd">
<svg version="1.0" xmlns="http://www.w3.org/2000/svg"
    width="514.000000pt" height="514.000000pt" viewBox="0 0 514.000000 514.000000"
    preserveAspectRatio="xMidYMid meet">
    <metadata> GDSTUDYWORLD | GLINCKER.O | GDS K S </metadata>
    <g transform="translate(0.000000,514.000000) scale(0.100000,-0.100000)"
        fill="#000000" stroke="none">
        <path
            d="M3835 5083 c-38 -2 -412 -4 -830 -6 -418 -3 -776 -7 -796 -10 -20 -3
-56 -8 -80 -11 -92 -11 -254 -48 -354 -81 -167 -55 -305 -130 -429 -236 -22
-19 -74 -63 -116 -99 -42 -36 -95 -81 -119 -100 -24 -19 -49 -40 -55 -47 -7
-6 -42 -35 -77 -64 -35 -29 -66 -56 -69 -59 -3 -3 -32 -28 -65 -55 -33 -28
-62 -52 -65 -55 -3 -3 -32 -28 -65 -55 -242 -198 -376 -414 -435 -703 -10 -53
-22 -131 -26 -172 -6 -71 -9 -1655 -4 -1880 3 -128 20 -241 54 -378 27 -106
92 -269 133 -334 13 -21 23 -40 23 -43 0 -20 133 -188 205 -260 197 -196 499
-329 820 -361 33 -3 71 -8 85 -11 14 -3 490 -7 1059 -8 l1033 -2 64 22 c57 20
108 51 146 88 7 7 40 35 73 62 73 59 288 238 295 245 3 3 30 25 60 50 30 25
63 52 72 60 9 8 63 53 121 100 119 98 148 133 174 214 19 56 19 100 18 1025
-1 531 -5 979 -9 995 -18 73 -70 146 -132 182 -77 45 -134 50 -609 49 -242 -1
-445 1 -452 3 -6 2 14 24 45 50 59 47 218 179 238 197 7 6 97 80 200 165 249
205 295 251 324 325 24 60 24 61 24 500 -1 422 -1 442 -22 497 -27 73 -83 134
-150 165 -58 25 -181 40 -307 36z m221 -266 c20 -23 24 -40 25 -90 2 -188 -1
-724 -4 -737 -9 -35 -21 -52 -44 -61 -13 -5 -313 -9 -686 -9 -707 -1 -733 -2
-829 -51 -73 -37 -132 -108 -158 -189 l-23 -72 0 -747 c1 -795 1 -803 50 -894
36 -66 84 -102 188 -143 26 -10 744 -14 750 -4 2 4 5 232 6 506 1 275 5 513
10 531 7 22 18 34 41 42 21 7 190 11 515 11 522 0 533 -1 547 -52 8 -30 8
-1882 0 -1903 -18 -47 3 -46 -1077 -44 -985 2 -1052 4 -1271 33 -27 4 -53 9
-57 11 -4 3 -23 7 -44 11 -59 9 -212 62 -288 100 -119 59 -219 141 -305 250
-55 68 -134 252 -148 344 -3 19 -8 38 -10 41 -2 3 -6 35 -9 70 -4 35 -9 72
-11 81 -7 23 -7 2012 0 2058 3 19 8 57 11 84 43 357 237 611 561 736 89 34
253 77 329 85 28 3 59 7 70 10 11 2 61 7 110 10 50 4 91 8 92 9 1 0 369 1 818
1 l817 0 24 -28z m-871 -1758 c2 -2 -42 -42 -97 -89 -56 -47 -106 -90 -112
-95 -6 -6 -78 -67 -161 -137 -82 -69 -160 -134 -172 -144 -42 -37 -63 -54 -67
-54 -4 0 -6 513 -1 520 3 6 604 4 610 -1z" />
        <path
            d="M2468 4505 c-2 -1 -34 -5 -73 -9 -236 -22 -417 -86 -521 -186 -116
-110 -174 -250 -203 -488 -8 -70 -7 -1905 1 -1937 3 -11 9 -40 13 -65 36 -232
171 -399 389 -480 119 -45 249 -70 446 -85 42 -3 1179 -8 1448 -5 l42 0 0 663
0 662 -112 -2 c-62 0 -116 -1 -120 -2 -5 -1 -8 -246 -8 -545 l0 -544 -622 3
c-343 2 -636 5 -653 8 -16 3 -58 8 -91 12 -76 7 -213 44 -278 75 -49 23 -146
111 -146 132 0 6 -6 19 -14 27 -8 9 -25 50 -38 91 l-23 75 -2 950 c-2 976 -3
948 32 1105 2 8 18 43 35 78 37 71 85 117 162 154 71 34 156 55 308 74 30 4
332 7 670 8 338 1 620 4 626 8 8 5 12 173 5 221 -1 7 -1265 9 -1273 2z" />
    </g>
</svg>